<svg width="48" height="48" viewBox="0 0 48 48" fill="none" xmlns="http://www.w3.org/2000/svg">
<path d="M12.293 37.5576L8.06152 42.1465H4.68262L12.293 33.8945V37.5576ZM26.0518 18.9766L38.1543 5.85352H41.5332L27.5615 21.0029L43.3174 42.1465H31.8213L23.8438 31.4414L26.0166 30.1875L33.0674 39.6484H38.3486L15.0264 8.35156H9.74512L17.4131 18.6416L11.9609 15.4941L4.77734 5.85352H16.2734L26.0518 18.9766Z" fill="white"/>
<path d="M16.3906 40.7158C16.3908 40.8758 16.519 41.0018 16.6826 41.002H24.2812C24.4449 41.0018 24.5731 40.8758 24.5732 40.7158L24.585 38.7119H25.7559L25.7441 40.7217C25.7439 41.5112 25.0888 42.1463 24.2812 42.1465H16.6826C15.8692 42.1463 15.2199 41.5054 15.2197 40.7158V38.7119H16.3906V40.7158ZM21.0674 37.0986L22.999 35.21L23.8242 36.0225L20.4824 39.2852L17.1455 36.0225L17.9707 35.21L19.8965 37.0986V33.7217L21.0674 33.0459V37.0986Z" fill="white"/>
<path fill-rule="evenodd" clip-rule="evenodd" d="M14.0488 18.7319L28.0976 26.9271L14.0488 35.1222V18.7319ZM15.5987 21.563L24.9229 26.9271L15.5987 32.2911V21.563Z" fill="white"/>
</svg>
